<svg xmlns="http://www.w3.org/2000/svg" xmlns:xlink="http://www.w3.org/1999/xlink" width="500" zoomAndPan="magnify" viewBox="0 0 375 374.999991" height="500" preserveAspectRatio="xMidYMid meet" version="1.0"><path fill="#5271ff" d="M 277.429688 25.003906 C 266.941406 21.136719 255.335938 26.566406 251.542969 36.90625 C 250.054688 40.550781 249.90625 44.492188 250.648438 48.0625 L 214.054688 65.097656 C 211.820312 62.269531 208.847656 60.039062 205.277344 58.699219 C 194.789062 54.832031 183.183594 60.1875 179.390625 70.601562 C 175.523438 81.089844 180.878906 92.695312 191.292969 96.5625 C 194.863281 97.902344 198.582031 98.125 202.152344 97.453125 L 218.8125 134.273438 C 215.914062 136.503906 213.605469 139.480469 212.195312 143.199219 C 208.324219 153.6875 213.679688 165.292969 224.09375 169.160156 C 234.582031 173.027344 246.1875 167.671875 250.054688 157.257812 C 253.921875 146.84375 248.492188 135.167969 238.152344 131.296875 C 234.507812 129.960938 230.789062 129.738281 227.292969 130.40625 L 210.632812 93.585938 C 213.457031 91.355469 215.765625 88.378906 217.101562 84.660156 C 218.441406 81.015625 218.738281 77.222656 217.996094 73.652344 L 254.59375 56.542969 C 256.824219 59.371094 259.800781 61.601562 263.371094 62.941406 C 273.859375 66.808594 285.386719 61.453125 289.253906 51.039062 C 293.125 40.625 287.84375 28.871094 277.429688 25.003906 Z M 373.160156 184.1875 C 371.300781 173.175781 360.886719 165.8125 349.804688 167.597656 C 346.011719 168.265625 342.515625 170.050781 339.835938 172.433594 L 306.808594 149.300781 C 308.074219 146.027344 308.519531 142.234375 307.851562 138.441406 C 305.992188 127.503906 295.578125 120.140625 284.644531 122 C 273.636719 123.859375 266.269531 134.273438 268.054688 145.355469 C 268.726562 149.152344 270.363281 152.421875 272.667969 155.101562 L 249.238281 187.90625 C 245.816406 186.566406 242.097656 186.046875 238.226562 186.640625 C 227.21875 188.574219 219.855469 198.914062 221.640625 209.996094 C 223.574219 220.929688 234.0625 228.371094 244.996094 226.4375 C 255.929688 224.574219 263.371094 214.164062 261.4375 203.226562 C 260.839844 199.433594 259.128906 196.085938 256.824219 193.335938 L 280.328125 160.53125 C 283.75 162.019531 287.46875 162.464844 291.339844 161.796875 C 295.207031 161.125 298.628906 159.339844 301.304688 156.960938 L 334.40625 180.09375 C 333.066406 183.367188 332.695312 187.160156 333.214844 190.953125 C 335.148438 201.890625 345.488281 209.253906 356.574219 207.394531 C 367.65625 205.609375 375.019531 195.121094 373.160156 184.1875 Z M 317.371094 193.707031 C 315.4375 182.773438 305.097656 175.332031 294.015625 177.269531 C 283.082031 179.128906 275.644531 189.542969 277.578125 200.476562 C 279.4375 211.484375 289.851562 218.847656 300.785156 217.0625 C 311.867188 215.128906 319.230469 204.714844 317.371094 193.707031 Z M 283.230469 346.566406 C 291.859375 339.5 292.976562 326.78125 285.832031 318.226562 C 283.378906 315.25 280.179688 313.09375 276.757812 311.902344 L 280.253906 271.734375 C 283.75 271.214844 287.246094 269.800781 290.148438 267.273438 C 298.777344 260.207031 299.890625 247.410156 292.824219 238.933594 C 285.683594 230.304688 272.964844 229.1875 264.335938 236.328125 C 261.4375 238.785156 259.277344 241.832031 258.164062 245.253906 L 218.070312 241.3125 C 217.476562 237.742188 216.0625 234.171875 213.53125 231.121094 C 206.464844 222.566406 193.746094 221.453125 185.191406 228.519531 C 176.5625 235.660156 175.449219 248.378906 182.589844 256.859375 C 189.65625 265.488281 202.449219 266.601562 210.929688 259.535156 C 213.90625 257.007812 215.988281 253.882812 217.101562 250.535156 L 257.269531 254.476562 C 257.792969 258.125 259.203125 261.621094 261.734375 264.667969 C 264.261719 267.644531 267.460938 269.800781 270.957031 270.992188 L 267.460938 311.160156 C 263.890625 311.679688 260.46875 313.167969 257.492188 315.621094 C 248.863281 322.6875 247.75 335.480469 254.890625 343.960938 C 261.882812 352.589844 274.675781 353.78125 283.230469 346.566406 Z M 247.078125 303.125 C 255.632812 295.984375 256.75 283.265625 249.683594 274.636719 C 242.542969 266.082031 229.824219 264.890625 221.195312 272.03125 C 212.640625 279.097656 211.523438 291.894531 218.589844 300.375 C 225.804688 309 238.453125 310.191406 247.078125 303.125 Z M 97.566406 349.988281 C 108.054688 353.855469 119.660156 348.5 123.453125 338.085938 C 124.941406 334.441406 125.089844 330.648438 124.347656 327.078125 L 160.941406 309.96875 C 163.175781 312.796875 166.148438 315.027344 169.71875 316.367188 C 180.207031 320.234375 191.8125 314.878906 195.605469 304.464844 C 199.472656 293.976562 194.117188 282.371094 183.703125 278.503906 C 180.132812 277.238281 176.414062 276.941406 172.84375 277.613281 L 156.183594 240.941406 C 159.082031 238.632812 161.390625 235.585938 162.804688 231.941406 C 166.671875 221.453125 161.316406 209.847656 150.902344 205.980469 C 140.414062 202.113281 128.808594 207.542969 124.941406 217.957031 C 121.074219 228.296875 126.503906 239.972656 136.84375 243.839844 C 140.488281 245.179688 144.207031 245.402344 147.703125 244.734375 L 164.363281 281.554688 C 161.539062 283.785156 159.234375 286.761719 157.894531 290.480469 C 156.554688 294.199219 156.257812 298.066406 157 301.636719 L 120.402344 318.671875 C 118.171875 315.84375 115.199219 313.613281 111.625 312.273438 C 101.140625 308.40625 89.609375 313.761719 85.742188 324.175781 C 81.800781 334.515625 87.15625 346.121094 97.566406 349.988281 Z M 117.28125 296.953125 C 127.769531 300.820312 139.296875 295.390625 143.164062 284.976562 C 147.035156 274.636719 141.679688 262.957031 131.265625 259.089844 C 120.777344 255.222656 109.171875 260.578125 105.304688 270.992188 C 101.4375 281.40625 106.792969 293.082031 117.28125 296.953125 Z M 1.835938 190.878906 C 3.695312 201.816406 14.109375 209.179688 25.191406 207.320312 C 28.988281 206.648438 32.484375 205.011719 35.160156 202.484375 L 68.1875 225.617188 C 66.921875 229.039062 66.476562 232.683594 67.144531 236.476562 C 69.003906 247.410156 79.417969 254.851562 90.351562 252.917969 C 101.363281 251.058594 108.726562 240.644531 106.941406 229.707031 C 106.269531 225.914062 104.636719 222.566406 102.328125 219.816406 L 125.761719 187.011719 C 129.179688 188.5 132.902344 188.945312 136.769531 188.277344 C 147.777344 186.417969 155.140625 176.003906 153.355469 165.070312 C 151.421875 154.058594 140.933594 146.695312 130 148.480469 C 119.066406 150.414062 111.625 160.753906 113.5625 171.839844 C 114.15625 175.632812 115.867188 178.90625 118.171875 181.582031 L 94.667969 214.386719 C 91.246094 213.046875 87.527344 212.527344 83.660156 213.195312 C 79.789062 213.789062 76.367188 215.5 73.691406 217.957031 L 40.589844 194.824219 C 41.929688 191.550781 42.300781 187.832031 41.78125 184.035156 C 39.847656 173.027344 29.507812 165.664062 18.425781 167.449219 C 7.339844 169.457031 -0.0234375 179.871094 1.835938 190.878906 Z M 57.625 181.285156 C 59.558594 192.292969 69.898438 199.65625 80.980469 197.871094 C 91.914062 195.9375 99.355469 185.449219 97.417969 174.515625 C 95.558594 163.582031 85.144531 156.144531 74.210938 158.078125 C 63.128906 159.9375 55.765625 170.351562 57.625 181.285156 Z M 91.765625 28.425781 C 83.136719 35.492188 82.023438 48.285156 89.164062 56.765625 C 91.617188 59.742188 94.816406 61.898438 98.238281 63.089844 L 94.742188 103.257812 C 91.246094 103.851562 87.75 105.265625 84.847656 107.71875 C 76.21875 114.859375 75.105469 127.578125 82.171875 136.058594 C 89.3125 144.6875 102.03125 145.804688 110.660156 138.738281 C 113.5625 136.207031 115.71875 133.082031 116.832031 129.738281 L 156.925781 133.679688 C 157.523438 137.324219 158.933594 140.820312 161.464844 143.871094 C 168.53125 152.5 181.324219 153.613281 189.804688 146.472656 C 198.433594 139.40625 199.546875 126.613281 192.40625 118.132812 C 185.339844 109.503906 172.546875 108.386719 164.066406 115.53125 C 161.09375 117.984375 159.007812 121.035156 157.894531 124.457031 L 117.726562 120.511719 C 117.207031 116.941406 115.792969 113.371094 113.261719 110.324219 C 110.734375 107.347656 107.535156 105.191406 104.039062 104.148438 L 107.535156 63.832031 C 111.105469 63.3125 114.601562 61.898438 117.503906 59.445312 C 126.132812 52.304688 127.246094 39.582031 120.105469 30.953125 C 113.113281 22.476562 100.320312 21.210938 91.765625 28.425781 Z M 127.917969 72.015625 C 119.363281 79.082031 118.246094 91.875 125.3125 100.355469 C 132.453125 108.984375 145.175781 110.097656 153.800781 102.957031 C 162.355469 95.890625 163.472656 83.171875 156.40625 74.617188 C 149.191406 66.0625 136.546875 64.800781 127.917969 72.015625 Z M 257.714844 78.1875 C 247.230469 74.320312 235.699219 79.675781 231.832031 90.089844 C 227.964844 100.503906 233.320312 112.183594 243.734375 116.050781 C 254.21875 119.84375 265.824219 114.488281 269.691406 104.074219 C 273.558594 93.660156 268.203125 82.058594 257.714844 78.1875 Z M 257.714844 78.1875 " fill-opacity="1" fill-rule="nonzero"/></svg>