<svg xmlns="http://www.w3.org/2000/svg" xmlns:xlink="http://www.w3.org/1999/xlink" width="500" zoomAndPan="magnify" viewBox="0 0 375 374.999991" height="500" preserveAspectRatio="xMidYMid meet" version="1.0"><rect x="-37.5" width="450" fill="#ffffff" y="-37.499999" height="449.999989" fill-opacity="1"/><rect x="-37.5" width="450" fill="#ffffff" y="-37.499999" height="449.999989" fill-opacity="1"/><path fill="#2ea5e4" d="M 207.96875 149.082031 C 198.476562 106.738281 158.089844 99.835938 149.707031 137.816406 C 149.953125 136.894531 149.761719 137.632812 149.8125 137.460938 C 141.179688 178.054688 189.761719 200.558594 224.175781 200.167969 C 224.09375 200.175781 224.515625 200.152344 224.03125 200.183594 C 273.453125 199.0625 328.3125 176.210938 375 200.542969 C 351.507812 197.921875 324.078125 204.484375 301.496094 212.125 C 181.542969 259.875 130.816406 203.433594 119.335938 170.5625 C 104.414062 125.878906 144.878906 77.003906 187.777344 99.007812 C 187.75 98.996094 188.316406 99.230469 188.136719 99.164062 C 206.117188 108.308594 212.410156 129.585938 207.96875 149.082031 " fill-opacity="1" fill-rule="nonzero"/><path fill="#177bb6" d="M 47.601562 138.453125 C 62.121094 248.71875 152.613281 261.292969 241.3125 244.890625 C 283.566406 235.867188 326.296875 211.667969 370.132812 220.792969 C 346.691406 224.875 321.867188 238.597656 300.878906 250.265625 C 169.179688 328.566406 10.175781 260.953125 47.601562 138.453125 " fill-opacity="1" fill-rule="nonzero"/><path fill="#2ea5e4" d="M 104.101562 69.175781 C 104.101562 69.175781 38.546875 150.589844 131.113281 223.253906 C 131.113281 223.253906 -0.00390625 161.570312 104.101562 69.175781 " fill-opacity="1" fill-rule="nonzero"/><path fill="#2ea5e4" d="M 183.683594 72.324219 C 183.683594 72.324219 113.023438 63.089844 100.96875 131.953125 C 100.96875 131.953125 93.464844 46.683594 183.683594 72.324219 " fill-opacity="1" fill-rule="nonzero"/></svg>